<svg id="图层_1" data-name="图层 1" xmlns="http://www.w3.org/2000/svg" xmlns:xlink="http://www.w3.org/1999/xlink" viewBox="0 0 200 200"><defs><style>.cls-1{fill:none;}.cls-2{clip-path:url(#clip-path);}.cls-3{fill:#f9cdc6;}.cls-4{fill:#ee7e6d;}.cls-5{fill:#fff;}</style><clipPath id="clip-path"><rect class="cls-1" x="18.96" y="0.35" width="157.93" height="199.31"/></clipPath></defs><title>fiel</title><g class="cls-2"><path class="cls-3" d="M176.73,50.71H144.82c-3.55,0-8.87-1.78-11.23-4.73a18.63,18.63,0,0,1-4.14-11.23V.47Zm0,0"/><path class="cls-4" d="M145.41,50.71A16.16,16.16,0,0,1,134.18,46a17.55,17.55,0,0,1-4.73-11.82V.47H34.89A16.18,16.18,0,0,0,23.66,5.2,17.6,17.6,0,0,0,18.93,17V182.86c0,9.46,7.1,16.55,16,16.55H160.77A16.11,16.11,0,0,0,172,194.68a16.47,16.47,0,0,0,4.73-11.82V50.71Zm0,0"/></g><path class="cls-5" d="M76.26,72h34.28c13.59,0,18.32,9.46,18.32,18.91s-5.32,18.92-18.32,18.92H87.49v23.64H75.67V72Zm11.82,29H107c6.5,0,10.64-1.77,10.64-9.45S112.9,82,108.17,82H88.08Zm0,0"/></svg>