<svg id="图层_1" data-name="图层 1" xmlns="http://www.w3.org/2000/svg" xmlns:xlink="http://www.w3.org/1999/xlink" viewBox="0 0 200 200"><defs><style>.cls-1{fill:none;}.cls-2{clip-path:url(#clip-path);}.cls-3{fill:#c2e6f9;}.cls-4{fill:#70c1ed;}.cls-5{fill:#fff;}</style><clipPath id="clip-path"><rect class="cls-1" x="24.96" y="1.29" width="157.49" height="198.74"/></clipPath></defs><title>fiel</title><g class="cls-2"><path class="cls-3" d="M182.28,51.51H150.46c-3.54,0-8.84-1.77-11.2-4.71a18.62,18.62,0,0,1-4.13-11.2V1.42Zm0,0"/><path class="cls-4" d="M151.05,51.51a16.11,16.11,0,0,1-11.2-4.71A17.52,17.52,0,0,1,135.13,35V1.42H40.84a16.15,16.15,0,0,0-11.2,4.71,17.55,17.55,0,0,0-4.71,11.79V183.29c0,9.43,7.07,16.5,15.91,16.5H166.37a16.15,16.15,0,0,0,11.2-4.71,16.5,16.5,0,0,0,4.71-11.79V51.51Zm0,0"/></g><rect class="cls-5" x="72.76" y="80.72" width="61.88" height="12.38"/><rect class="cls-5" x="97.52" y="80.72" width="12.38" height="61.88"/></svg>