<?xml version="1.0" encoding="utf-8"?>
<!-- Generator: Adobe Illustrator 22.0.0, SVG Export Plug-In . SVG Version: 6.00 Build 0)  -->
<svg version="1.1" id="图层_1" xmlns="http://www.w3.org/2000/svg" xmlns:xlink="http://www.w3.org/1999/xlink" x="0px" y="0px"
	 viewBox="0 0 200 200" style="enable-background:new 0 0 200 200;" xml:space="preserve">
<style type="text/css">
	.st0{fill:#333333;}
	.st1{fill:#3982C5;}
	.st2{fill:#3883C5;}
	.st3{fill:none;stroke:#231815;stroke-width:14;stroke-linecap:round;stroke-miterlimit:10;}
	.st4{fill:#666666;}
	.st5{clip-path:url(#SVGID_2_);fill:#C2E6F9;}
	.st6{clip-path:url(#SVGID_2_);fill:#70C1ED;}
	.st7{clip-path:url(#SVGID_4_);fill:#F9CDC6;}
	.st8{clip-path:url(#SVGID_4_);fill:#EE7E6D;}
	.st9{fill:#FFFFFF;}
	.st10{fill:#D94F4F;}
	.st11{fill:#EB6766;}
	.st12{fill:none;}
	.st13{fill:#3882C5;}
	.st14{fill:#95CCEF;}
	.st15{fill:#54B87C;}
	.st16{fill:#9AD1B0;}
	.st17{fill:#8183F1;}
	.st18{fill:#B0B0FF;}
	.st19{fill:#8281F9;}
	.st20{fill:#AFAFFF;}
	.st21{clip-path:url(#SVGID_6_);fill:#EA555F;}
	.st22{fill:#F5B7BC;}
	.st23{fill:#626F90;}
	.st24{fill:none;stroke:#626F90;stroke-width:14;stroke-miterlimit:10;}
	.st25{fill:#EAEEF1;}
	.st26{clip-path:url(#SVGID_8_);fill:#EA555F;}
	.st27{fill:#C7E8FA;}
	.st28{clip-path:url(#SVGID_10_);fill:#EA555F;}
	.st29{fill:#0099F8;}
	.st30{fill:#76B8FF;}
	.st31{fill:#51739B;}
	.st32{fill:#ABB6CE;}
	.st33{fill:#C2C2C2;}
	.st34{fill:#DADADA;}
</style>
<g>
	<path class="st19" d="M130.7,0.5H31c-5.5,0-10,4.5-10,10V190c0,5.5,4.5,10,10,10h139.6c5.5,0,10-4.5,10-10V50.4L130.7,0.5z
		 M130.7,0.5"/>
	<path class="st20" d="M130.7,0.5l49.9,49.9h-41.9c-4.4,0-7.9-3.5-7.9-7.9V0.5z M130.7,0.5"/>
</g>
<path class="st9" d="M129,80.5L94.6,91.2c-3.8,1.5-7.6,5.4-7.6,9.9v35.9c0,0-2.3-1.5-7.6-0.8c-8.4,1.5-14.5,7.6-14.5,13.8
	c0,6.9,6.9,10.7,14.5,9.2c8.4-1.5,13.8-6.9,13.8-13.8v-34.4c0-3.1,3.8-3.8,3.8-3.8l30.6-9.2c0,0,3.1-0.8,3.1,2.3v29.1
	c0,0-3.1-1.5-8.4-0.8c-8.4-0.8-15.3,5.4-15.3,11.5c0,6.9,6.9,10.7,14.5,9.9c8.4-0.8,14.5-6.9,14.5-13.8V85.9
	C135.9,82,132.8,79.8,129,80.5L129,80.5z M129,80.5"/>
</svg>
