<svg id="图层_1" data-name="图层 1" xmlns="http://www.w3.org/2000/svg" viewBox="0 0 200 200"><defs><style>.cls-1{fill:#54b87c;}.cls-2{fill:#9ad1b0;}.cls-3{fill:#fff;}</style></defs><title>fiel</title><path class="cls-1" d="M134.68.51H34.94a10,10,0,0,0-10,10V190a10,10,0,0,0,10,10H174.58a10,10,0,0,0,10-10V50.38Zm0,0"/><path class="cls-2" d="M134.68.51l49.88,49.87H142.61a7.93,7.93,0,0,1-7.93-7.93Zm0,0"/><path class="cls-3" d="M140.67,71H122.12L104.76,96,87.4,71H68.85l26.63,38.2-26.63,38.3H87.4l17.36-24.93,17.36,24.93h18.55L114,109.23Zm0,0"/></svg>