<svg id="图层_1" data-name="图层 1" xmlns="http://www.w3.org/2000/svg" viewBox="0 0 200 200"><defs><style>.cls-1{fill:#d94f4f;}.cls-2{fill:#eb6766;}.cls-3{fill:none;}.cls-4{fill:#fff;}</style></defs><title>fiel</title><path class="cls-1" d="M181.13,50.85H149.31c-3.54,0-8.84-1.77-11.2-4.72A18.57,18.57,0,0,1,134,34.94V.76Zm0,0"/><path class="cls-2" d="M149.89,50.85a16.07,16.07,0,0,1-11.19-4.72A17.49,17.49,0,0,1,134,34.35V.76H39.69a16.1,16.1,0,0,0-11.2,4.71,17.55,17.55,0,0,0-4.71,11.79V182.63c0,9.42,7.07,16.5,15.91,16.5H165.22a16.11,16.11,0,0,0,11.2-4.72,16.46,16.46,0,0,0,4.71-11.78V50.85Z"/><rect class="cls-3" x="23.81" y="0.63" width="157.49" height="198.74"/><path class="cls-4" d="M136.34,123.92c-7.07-.58-14.73-2.94-20-8.25a155.88,155.88,0,0,0-31.82,10.61c-8.25,14.74-16.5,22.4-23,22.4-1.18,0-3,0-4.13-1.18a7.65,7.65,0,0,1-4.71-7.07c0-2.36.59-9.43,26.52-20.63A169.23,169.23,0,0,0,93.32,86.21c-3.54-6.49-10.61-22.4-5.3-30.65,1.17-2.94,4.71-4.71,8.25-4.71a9.24,9.24,0,0,1,7.07,3.53c3.53,4.72,3.53,14.74-1.18,30.06a101.25,101.25,0,0,0,16.5,21.81,84.05,84.05,0,0,1,17.09-1.77c13,0,14.73,5.89,14.73,9.43-.59,10-9.42,10-14.14,10ZM60.91,141h.59a14.36,14.36,0,0,0,8.84-7.67A19.54,19.54,0,0,0,60.91,141Zm36-81.33h-.59c-.59,0-.59,0-1.18.59a18,18,0,0,0,1.77,13.55,28.92,28.92,0,0,0,0-14.14Zm1.76,39.48-.59.59h-.59c-2.35,5.9-4.71,12.38-7.66,18.27h.59v.59c5.9-2.36,12.38-3.53,18.27-5.3l-.59-.59h1.18c-3.53-4.72-7.66-8.84-10.61-13.56Zm36.54,14.15a28.65,28.65,0,0,0-7.07.59,20.76,20.76,0,0,0,8.25,1.76c1.77.59,3.54,0,5.3-.58,0-.59-1.17-1.77-6.48-1.77Zm0,0"/></svg>