<?xml version="1.0" encoding="utf-8"?>
<!-- Generator: Adobe Illustrator 22.0.0, SVG Export Plug-In . SVG Version: 6.00 Build 0)  -->
<svg version="1.1" id="图层_1" xmlns="http://www.w3.org/2000/svg" xmlns:xlink="http://www.w3.org/1999/xlink" x="0px" y="0px"
	 viewBox="0 0 200 200" style="enable-background:new 0 0 200 200;" xml:space="preserve">
<style type="text/css">
	.st0{fill:#333333;}
	.st1{fill:#3982C5;}
	.st2{fill:#3883C5;}
	.st3{fill:none;stroke:#231815;stroke-width:14;stroke-linecap:round;stroke-miterlimit:10;}
	.st4{fill:#666666;}
	.st5{clip-path:url(#SVGID_2_);fill:#C2E6F9;}
	.st6{clip-path:url(#SVGID_2_);fill:#70C1ED;}
	.st7{clip-path:url(#SVGID_4_);fill:#F9CDC6;}
	.st8{clip-path:url(#SVGID_4_);fill:#EE7E6D;}
	.st9{fill:#FFFFFF;}
	.st10{fill:#D94F4F;}
	.st11{fill:#EB6766;}
	.st12{fill:none;}
	.st13{fill:#3882C5;}
	.st14{fill:#95CCEF;}
	.st15{fill:#54B87C;}
	.st16{fill:#9AD1B0;}
	.st17{fill:#8183F1;}
	.st18{fill:#B0B0FF;}
	.st19{fill:#8281F9;}
	.st20{fill:#AFAFFF;}
	.st21{clip-path:url(#SVGID_6_);fill:#EA555F;}
	.st22{fill:#F5B7BC;}
	.st23{fill:#626F90;}
	.st24{fill:none;stroke:#626F90;stroke-width:14;stroke-miterlimit:10;}
	.st25{fill:#EAEEF1;}
	.st26{clip-path:url(#SVGID_8_);fill:#EA555F;}
	.st27{fill:#C7E8FA;}
	.st28{clip-path:url(#SVGID_10_);fill:#EA555F;}
	.st29{fill:#0099F8;}
	.st30{fill:#76B8FF;}
	.st31{fill:#51739B;}
	.st32{fill:#ABB6CE;}
	.st33{fill:#C2C2C2;}
	.st34{fill:#DADADA;}
</style>
<path class="st17" d="M130,0H30.2c-5.5,0-10,4.5-10,10v179.5c0,5.5,4.5,10,10,10h139.6c5.5,0,10-4.5,10-10V49.9L130,0z M130,0"/>
<path class="st18" d="M130,0l49.9,49.9h-41.9c-4.4,0-7.9-3.5-7.9-7.9V0z M130,0"/>
<path class="st9" d="M120.5,114.4v-10.3c0-1,0.3-2.1,0.8-2.6l11.1-11.4c3.6-3.9,7.7-4.9,7.7-0.8v40c0,4.1-4.1,3.1-7.7-0.8L121.3,117
	C120.8,116.4,120.5,115.4,120.5,114.4L120.5,114.4z M115.1,125.5c0,3.4-2.8,6.2-6.2,6.2H66.1c-3.4,0-6.2-2.8-6.2-6.2V92.7
	c0-3.4,2.8-6.2,6.2-6.2h43.1c3.4,0,6.2,2.8,6.2,6.2v32.8H115.1z M115.1,125.5"/>
</svg>
