<svg id="图层_1" data-name="图层 1" xmlns="http://www.w3.org/2000/svg" viewBox="0 0 200 200"><defs><style>.cls-1{fill:#3882c5;}.cls-2{fill:#95ccef;}.cls-3{fill:#fff;}</style></defs><title>fiel</title><path class="cls-1" d="M139.5.88H32.89a9.49,9.49,0,0,0-9.49,9.49V190.14a9.49,9.49,0,0,0,9.49,9.49H172a9.49,9.49,0,0,0,9.49-9.49V42.9Zm0,0"/><path class="cls-2" d="M139.5.88V33.41A9.49,9.49,0,0,0,149,42.9h32.53Zm0,0"/><path class="cls-3" d="M132.11,138.08H114.75l-11.2-54.45L91.78,138.08H74.32L57.91,72.62H72.05l11,55.4L94.65,73.57h18.41l11.2,54.64L136,72.62H149.5Zm0,0"/></svg>