<?xml version="1.0" encoding="utf-8"?>
<!-- Generator: Adobe Illustrator 22.0.0, SVG Export Plug-In . SVG Version: 6.00 Build 0)  -->
<svg version="1.1" id="图层_1" xmlns="http://www.w3.org/2000/svg" xmlns:xlink="http://www.w3.org/1999/xlink" x="0px" y="0px"
	 viewBox="0 0 200 200" style="enable-background:new 0 0 200 200;" xml:space="preserve">
<style type="text/css">
	.st0{fill:#333333;}
	.st1{fill:#3982C5;}
	.st2{fill:#3883C5;}
	.st3{fill:none;stroke:#231815;stroke-width:14;stroke-linecap:round;stroke-miterlimit:10;}
	.st4{fill:#666666;}
	.st5{clip-path:url(#SVGID_2_);fill:#C2E6F9;}
	.st6{clip-path:url(#SVGID_2_);fill:#70C1ED;}
	.st7{clip-path:url(#SVGID_4_);fill:#F9CDC6;}
	.st8{clip-path:url(#SVGID_4_);fill:#EE7E6D;}
	.st9{fill:#FFFFFF;}
	.st10{fill:#D94F4F;}
	.st11{fill:#EB6766;}
	.st12{fill:none;}
	.st13{fill:#3882C5;}
	.st14{fill:#95CCEF;}
	.st15{fill:#54B87C;}
	.st16{fill:#9AD1B0;}
	.st17{fill:#8183F1;}
	.st18{fill:#B0B0FF;}
	.st19{fill:#8281F9;}
	.st20{fill:#AFAFFF;}
	.st21{clip-path:url(#SVGID_6_);fill:#EA555F;}
	.st22{fill:#F5B7BC;}
	.st23{fill:#626F90;}
	.st24{fill:none;stroke:#626F90;stroke-width:14;stroke-miterlimit:10;}
	.st25{fill:#EAEEF1;}
	.st26{clip-path:url(#SVGID_8_);fill:#EA555F;}
	.st27{fill:#C7E8FA;}
	.st28{clip-path:url(#SVGID_10_);fill:#EA555F;}
	.st29{fill:#0099F8;}
	.st30{fill:#76B8FF;}
	.st31{fill:#51739B;}
	.st32{fill:#ABB6CE;}
	.st33{fill:#C2C2C2;}
	.st34{fill:#DADADA;}
</style>
<path class="st31" d="M166.9,200H33.1c-8.1,0-14.6-6.6-14.6-14.6v-170c0-8.1,6.6-14.6,14.6-14.6h94.1l54.4,54.3v130.3
	C181.5,193.4,175,200,166.9,200L166.9,200z M166.9,200"/>
<path class="st32" d="M127.2,40.4c0,8.1,6.6,14.6,14.6,14.6h39.7L127.2,0.7V40.4z M127.2,40.4"/>
<path class="st9" d="M63.8,0.7h9.1v9.1h-9.1V0.7z M72.8,9.8h9.1v9.1h-9.1V9.8z M72.8,9.8"/>
<path class="st9" d="M63.8,18.8h9.1v9.1h-9.1V18.8z M72.8,27.9h9.1V37h-9.1V27.9z M72.8,27.9"/>
<rect x="63.8" y="36.9" class="st9" width="9.1" height="9.1"/>
<rect x="72.8" y="46" class="st9" width="9.1" height="9.1"/>
<path class="st9" d="M63.8,55.1h9.1v9.1h-9.1V55.1z M72.8,64.1h9.1v9.1h-9.1V64.1z M72.8,64.1"/>
<path class="st9" d="M63.8,73.2h9.1v9.1h-9.1V73.2z M72.8,82.2h9.1v9.1h-9.1V82.2z M72.8,82.2"/>
<path class="st9" d="M63.8,91.3h9.1v9.1h-9.1V91.3z M72.8,100.4h9.1v9.1h-9.1V100.4z M63.8,109.4h18.1v18.1H63.8V109.4z M63.8,109.4
	"/>
</svg>
