<svg width="200" height="200" viewBox="0 0 200 200" fill="none" xmlns="http://www.w3.org/2000/svg">
<rect width="200" height="200" fill="#EBDD65"/>
<path d="M113.264 124.2H114.096V149.8C114.096 156.499 112.773 161.427 110.128 164.584C107.483 167.699 104.027 169.256 99.76 169.256C97.072 169.256 94.7893 169.021 92.912 168.552C91.0347 168.04 89.264 167.123 87.6 165.8C84.1867 163.155 82.48 157.821 82.48 149.8V124.2H87.792V149.736C87.792 157.501 88.9653 162.685 91.312 165.288C92.5067 166.568 93.744 167.443 95.024 167.912C96.3467 168.381 97.9253 168.616 99.76 168.616C103.856 168.616 107.12 167.123 109.552 164.136C112.027 161.107 113.264 156.307 113.264 149.736V124.2ZM146.346 126.888C142.463 125.395 138.794 124.648 135.338 124.648C131.925 124.648 129.258 125.373 127.338 126.824C125.418 128.275 124.458 130.28 124.458 132.84C124.458 135.955 126.079 138.365 129.322 140.072C130.773 140.797 132.351 141.48 134.058 142.12C135.807 142.717 137.557 143.4 139.306 144.168C141.055 144.936 142.655 145.811 144.106 146.792C145.557 147.773 146.73 149.139 147.626 150.888C148.522 152.595 148.97 154.792 148.97 157.48C148.97 160.125 148.223 162.387 146.73 164.264C145.237 166.141 143.423 167.421 141.29 168.104C139.199 168.744 136.746 169.064 133.93 169.064C128.682 169.064 124.202 167.763 120.49 165.16L120.81 164.648C122.218 165.757 124.031 166.675 126.25 167.4C128.511 168.083 130.815 168.424 133.162 168.424C136.618 168.424 139.562 167.635 141.994 166.056C144.469 164.435 145.706 162.067 145.706 158.952C145.706 155.539 144.085 152.872 140.842 150.952C139.391 150.099 137.791 149.309 136.042 148.584C134.335 147.859 132.607 147.112 130.858 146.344C129.109 145.533 127.509 144.637 126.058 143.656C122.815 141.523 121.194 138.493 121.194 134.568C121.194 131.453 122.239 128.936 124.33 127.016C126.421 125.053 129.557 124.072 133.738 124.072C137.962 124.072 142.25 124.797 146.602 126.248L146.346 126.888ZM181.14 124.2V124.84H160.98V144.04H179.668V144.68H160.98V168.36H182.548V169H155.668V124.2H181.14Z" fill="#1E1E1E"/>
</svg>
